<svg xmlns="http://www.w3.org/2000/svg" xmlns:xlink="http://www.w3.org/1999/xlink" version="1.1" x="0px" y="0px" viewBox="-0.929646 24.0619 139.166 91.8265" enable-background="new 0 0 140 140" xml:space="preserve"  width="100%" height="100%" preserveAspectRatio="xMidYMid meet"><rect id="svgEditorBackground" x="0" y="0" width="140" height="175" style="fill: none; stroke: none;"/><polygon points="125.424,84.605 122.785,64.463 99.018,39.83 88.055,61.689 79.425,40.013 63.959,26.84 45.269,64.111   32.078,46.977 3.464,104.064 6.146,105.41 33.087,51.688 33.041,67.502 41.384,79.018 33.451,89.368 56.942,112.084 47.181,83.151   51.875,72.681 47.302,66.748 64.331,32.791 61.289,51.872 67.87,62.471 65.556,80.579 78.953,66.461 89.54,65.419 99.993,44.576   103.716,74.605 89.86,81.181 83.751,112.084 109.362,91.281 134.522,102.367 "/></svg>