<?xml version="1.0" standalone="no"?>
<!DOCTYPE svg PUBLIC "-//W3C//DTD SVG 20010904//EN"
 "http://www.w3.org/TR/2001/REC-SVG-20010904/DTD/svg10.dtd">
<svg version="1.0" xmlns="http://www.w3.org/2000/svg"
 width="106.000000pt" height="69.000000pt" viewBox="0 0 106.000000 69.000000"
 preserveAspectRatio="xMidYMid meet">
<metadata>
Created by potrace 1.11, written by Peter Selinger 2001-2013
</metadata>
<g transform="translate(0.000000,69.000000) scale(0.100000,-0.100000)"
fill="#000000" stroke="none">
<path d="M416 540 c-38 -77 -73 -139 -77 -138 -10 4 -89 101 -89 110 0 5 -4 8
-8 8 -11 0 -237 -449 -229 -456 14 -14 33 18 124 202 53 107 99 196 102 199 4
2 6 -20 4 -49 -2 -47 1 -59 32 -101 l34 -48 -31 -39 c-17 -21 -28 -42 -24 -46
36 -40 171 -170 174 -167 2 2 -12 53 -33 114 l-36 110 19 38 c20 38 20 39 1
65 l-20 27 62 120 c57 113 77 145 65 104 -2 -10 -7 -39 -11 -65 -5 -40 -2 -54
20 -87 23 -34 25 -46 20 -92 -3 -30 -8 -62 -11 -71 -8 -28 2 -22 58 37 46 47
59 56 93 58 39 2 41 4 82 82 23 44 43 73 43 65 1 -8 3 -22 5 -31 1 -8 6 -42
10 -75 15 -122 18 -111 -41 -135 -30 -13 -56 -30 -58 -38 -4 -14 -17 -80 -30
-151 -3 -14 -8 -40 -12 -59 l-7 -33 24 20 c13 11 60 50 103 85 l80 65 78 -34
c42 -18 87 -38 98 -44 28 -15 26 -1 -11 65 -16 30 -32 63 -33 73 -12 67 -19
119 -17 133 1 9 -43 63 -97 120 l-100 103 -30 -59 c-17 -33 -37 -72 -45 -88
l-14 -27 -32 84 c-28 74 -39 91 -84 128 -29 24 -53 46 -55 51 -11 24 -35 -9
-96 -133z"/>
</g>
</svg>
